<svg id="Layer_1" data-name="Layer 1" xmlns="http://www.w3.org/2000/svg" viewBox="0 0 600 600"><path d="M453,154.81V411.08a63.49,63.49,0,0,1-63.42,63.42h-206a107.16,107.16,0,0,1-12,31H389.58A94.53,94.53,0,0,0,484,411.08V140.91A107.38,107.38,0,0,1,453,154.81Z"/><path d="M523,50.5a98.11,98.11,0,0,1-98,98H176v303a98.11,98.11,0,0,1-98,98v-33a65.08,65.08,0,0,0,65-65V428.89a100.05,100.05,0,0,1-66,24.64v-33c36.39,0,66-28.5,66-63.53V115.5H425a65.08,65.08,0,0,0,65-65Z"/><path d="M320.57,420.21a2.59,2.59,0,0,1,1.57,2,7.68,7.68,0,0,1-1.13,3.93,13.17,13.17,0,0,1-1.25,2.08,3.76,3.76,0,0,1-1.16,1.07,2,2,0,0,1-1.15.24,3.3,3.3,0,0,1-1.25-.42l-34.08-17.56a3.46,3.46,0,0,1-1.53-1.38,8,8,0,0,1,0-5.46,3.46,3.46,0,0,1,1.53-1.38l34.08-17.56a3.3,3.3,0,0,1,1.25-.42,2,2,0,0,1,1.15.24,3.76,3.76,0,0,1,1.16,1.07,13.17,13.17,0,0,1,1.25,2.08,7.68,7.68,0,0,1,1.13,3.93,2.59,2.59,0,0,1-1.57,2L295,407.45Z"/><path d="M345.78,444.59a2.17,2.17,0,0,1-1.26,1.1,5.86,5.86,0,0,1-2.06.35,9.82,9.82,0,0,1-2.62-.38,8.06,8.06,0,0,1-2.38-1A4.37,4.37,0,0,1,336,443a2.28,2.28,0,0,1,.05-2.08l28.92-65a2.25,2.25,0,0,1,1.29-1.11,5.68,5.68,0,0,1,2.12-.38,9.57,9.57,0,0,1,2.6.38,8.05,8.05,0,0,1,2.36,1,4.23,4.23,0,0,1,1.49,1.62,2.44,2.44,0,0,1-.07,2.12Z"/><path d="M390.14,394.69a2.6,2.6,0,0,1-1.58-2,7.82,7.82,0,0,1,1.14-3.93,12.45,12.45,0,0,1,1.25-2.08,3.74,3.74,0,0,1,1.15-1.07,2,2,0,0,1,1.16-.24,3.36,3.36,0,0,1,1.25.42l34.08,17.56a3.46,3.46,0,0,1,1.53,1.38,8,8,0,0,1,0,5.46,3.46,3.46,0,0,1-1.53,1.38l-34.08,17.56a3.36,3.36,0,0,1-1.25.42,2,2,0,0,1-1.16-.24,3.74,3.74,0,0,1-1.15-1.07,12.45,12.45,0,0,1-1.25-2.08,7.82,7.82,0,0,1-1.14-3.93,2.6,2.6,0,0,1,1.58-2l25.56-12.76Z"/><path d="M265.65,243.1a15.89,15.89,0,0,1,2.61,2,11.56,11.56,0,0,1,2,2.51,12.11,12.11,0,0,1,1.32,3.12,14.46,14.46,0,0,1,.47,3.79v8.2q0,4.08,1.61,5.92a6.07,6.07,0,0,0,4.8,1.83,3.72,3.72,0,0,1,1.18.17,1.49,1.49,0,0,1,.79.61,3.08,3.08,0,0,1,.45,1.26,12.18,12.18,0,0,1,.15,2.12,12.31,12.31,0,0,1-.15,2.13,3.24,3.24,0,0,1-.45,1.28,1.48,1.48,0,0,1-.79.63,3.72,3.72,0,0,1-1.18.17q-8.16,0-12.38-3.86t-4.23-11.77v-8.28a8.3,8.3,0,0,0-1.71-5.65q-1.71-1.94-5.63-1.94a3.7,3.7,0,0,1-1.18-.16,1.54,1.54,0,0,1-.8-.63,3.58,3.58,0,0,1-.45-1.29,16.12,16.12,0,0,1,0-4.24,3.41,3.41,0,0,1,.45-1.26,1.57,1.57,0,0,1,.8-.62,4,4,0,0,1,1.18-.16q3.92,0,5.63-1.94a8.28,8.28,0,0,0,1.71-5.65v-6.48q0-7.87,4.23-11.75t12.38-3.88a3.72,3.72,0,0,1,1.18.17,1.43,1.43,0,0,1,.79.63,3.24,3.24,0,0,1,.45,1.28,12.18,12.18,0,0,1,.15,2.12,12.31,12.31,0,0,1-.15,2.13,3.08,3.08,0,0,1-.45,1.26,1.49,1.49,0,0,1-.79.61,3.72,3.72,0,0,1-1.18.17,6.07,6.07,0,0,0-4.8,1.83q-1.6,1.84-1.61,5.92v6.4a14.41,14.41,0,0,1-.47,3.79,11.75,11.75,0,0,1-1.32,3.11,11.88,11.88,0,0,1-2,2.48A15.35,15.35,0,0,1,265.65,243.1Z"/><path d="M321.78,243.1a15.35,15.35,0,0,1-2.61-2,11.88,11.88,0,0,1-2-2.48,12.11,12.11,0,0,1-1.33-3.11,14.41,14.41,0,0,1-.47-3.79v-6.4c0-2.72-.53-4.69-1.61-5.92a6,6,0,0,0-4.79-1.83,3.68,3.68,0,0,1-1.18-.17,1.51,1.51,0,0,1-.8-.61,3.41,3.41,0,0,1-.45-1.26,13.56,13.56,0,0,1-.14-2.13,13.42,13.42,0,0,1,.14-2.12A3.59,3.59,0,0,1,307,210a1.45,1.45,0,0,1,.8-.63,3.68,3.68,0,0,1,1.18-.17q8.16,0,12.38,3.88t4.22,11.75v6.48a8.23,8.23,0,0,0,1.72,5.65c1.14,1.29,3,1.94,5.63,1.94a4.06,4.06,0,0,1,1.18.16,1.55,1.55,0,0,1,.79.62,3.08,3.08,0,0,1,.45,1.26,15.06,15.06,0,0,1,0,4.24,3.24,3.24,0,0,1-.45,1.29,1.51,1.51,0,0,1-.79.63,3.74,3.74,0,0,1-1.18.16c-2.62,0-4.49.65-5.63,1.94a8.25,8.25,0,0,0-1.72,5.65v8.28q0,7.92-4.22,11.77t-12.38,3.86a3.68,3.68,0,0,1-1.18-.17,1.5,1.5,0,0,1-.8-.63,3.59,3.59,0,0,1-.45-1.28,13.56,13.56,0,0,1-.14-2.13,13.42,13.42,0,0,1,.14-2.12,3.41,3.41,0,0,1,.45-1.26,1.51,1.51,0,0,1,.8-.61,3.68,3.68,0,0,1,1.18-.17,6,6,0,0,0,4.79-1.83c1.08-1.23,1.61-3.2,1.61-5.92v-8.2a14.46,14.46,0,0,1,.47-3.79,12.49,12.49,0,0,1,1.33-3.12,11.56,11.56,0,0,1,2-2.51A15.89,15.89,0,0,1,321.78,243.1Z"/><path d="M365.84,243.1a15.89,15.89,0,0,1,2.61,2,11.56,11.56,0,0,1,2,2.51,12.11,12.11,0,0,1,1.32,3.12,14.05,14.05,0,0,1,.47,3.79v8.2q0,4.08,1.61,5.92a6.07,6.07,0,0,0,4.8,1.83,3.72,3.72,0,0,1,1.18.17,1.55,1.55,0,0,1,.8.61,3.41,3.41,0,0,1,.45,1.26,13.42,13.42,0,0,1,.14,2.12,13.56,13.56,0,0,1-.14,2.13,3.59,3.59,0,0,1-.45,1.28,1.54,1.54,0,0,1-.8.63,3.72,3.72,0,0,1-1.18.17q-8.16,0-12.38-3.86t-4.23-11.77v-8.28a8.3,8.3,0,0,0-1.71-5.65q-1.71-1.94-5.63-1.94a3.7,3.7,0,0,1-1.18-.16,1.54,1.54,0,0,1-.8-.63,3.58,3.58,0,0,1-.45-1.29,16.12,16.12,0,0,1,0-4.24,3.41,3.41,0,0,1,.45-1.26,1.57,1.57,0,0,1,.8-.62,4,4,0,0,1,1.18-.16q3.92,0,5.63-1.94a8.28,8.28,0,0,0,1.71-5.65v-6.48q0-7.87,4.23-11.75t12.38-3.88a3.72,3.72,0,0,1,1.18.17,1.49,1.49,0,0,1,.8.63,3.59,3.59,0,0,1,.45,1.28,13.42,13.42,0,0,1,.14,2.12,13.56,13.56,0,0,1-.14,2.13,3.41,3.41,0,0,1-.45,1.26,1.55,1.55,0,0,1-.8.61,3.72,3.72,0,0,1-1.18.17,6.07,6.07,0,0,0-4.8,1.83q-1.61,1.84-1.61,5.92v6.4a14,14,0,0,1-.47,3.79,11.75,11.75,0,0,1-1.32,3.11,11.88,11.88,0,0,1-2,2.48A15.35,15.35,0,0,1,365.84,243.1Z"/><path d="M422,243.1a15.35,15.35,0,0,1-2.61-2,11.88,11.88,0,0,1-2-2.48,12.11,12.11,0,0,1-1.33-3.11,14.42,14.42,0,0,1-.46-3.79v-6.4q0-4.08-1.62-5.92a6,6,0,0,0-4.79-1.83,3.68,3.68,0,0,1-1.18-.17,1.55,1.55,0,0,1-.8-.61,3.41,3.41,0,0,1-.45-1.26,13.56,13.56,0,0,1-.14-2.13,13.42,13.42,0,0,1,.14-2.12,3.59,3.59,0,0,1,.45-1.28,1.49,1.49,0,0,1,.8-.63,3.68,3.68,0,0,1,1.18-.17q8.16,0,12.38,3.88t4.22,11.75v6.48a8.23,8.23,0,0,0,1.72,5.65q1.71,1.94,5.63,1.94a4.06,4.06,0,0,1,1.18.16,1.57,1.57,0,0,1,.8.62,3.24,3.24,0,0,1,.44,1.26,15.06,15.06,0,0,1,0,4.24,3.41,3.41,0,0,1-.44,1.29,1.54,1.54,0,0,1-.8.63,3.74,3.74,0,0,1-1.18.16q-3.92,0-5.63,1.94a8.25,8.25,0,0,0-1.72,5.65v8.28q0,7.92-4.22,11.77t-12.38,3.86a3.68,3.68,0,0,1-1.18-.17,1.54,1.54,0,0,1-.8-.63,3.59,3.59,0,0,1-.45-1.28,13.56,13.56,0,0,1-.14-2.13,13.42,13.42,0,0,1,.14-2.12,3.41,3.41,0,0,1,.45-1.26,1.55,1.55,0,0,1,.8-.61,3.68,3.68,0,0,1,1.18-.17,6,6,0,0,0,4.79-1.83q1.62-1.85,1.62-5.92v-8.2a14.47,14.47,0,0,1,.46-3.79,12.49,12.49,0,0,1,1.33-3.12,11.56,11.56,0,0,1,2-2.51A15.89,15.89,0,0,1,422,243.1Z"/><path d="M343.94,331.72a9.5,9.5,0,0,1-3.78-.77,9.6,9.6,0,0,1-3.08-2.07,9.71,9.71,0,0,1-2.06-3.05,9.71,9.71,0,0,1,0-7.58,9.58,9.58,0,0,1,5.14-5.15,9.71,9.71,0,0,1,7.58,0,9.63,9.63,0,0,1,5.12,5.15,9.71,9.71,0,0,1,0,7.58,9.71,9.71,0,0,1-5.12,5.12A9.42,9.42,0,0,1,343.94,331.72Zm28.73,0a9.5,9.5,0,0,1-3.78-.77,9.6,9.6,0,0,1-3.08-2.07,9.71,9.71,0,0,1-2.06-3.05,9.71,9.71,0,0,1,0-7.58,9.58,9.58,0,0,1,5.14-5.15,9.71,9.71,0,0,1,7.58,0,9.63,9.63,0,0,1,5.12,5.15,9.71,9.71,0,0,1,0,7.58,9.71,9.71,0,0,1-5.12,5.12A9.45,9.45,0,0,1,372.67,331.72Z"/></svg>