<svg id="Layer_1" data-name="Layer 1" xmlns="http://www.w3.org/2000/svg" viewBox="0 0 600 600"><path d="M294.34,417.1a2.26,2.26,0,0,1,1.37,1.75,6.71,6.71,0,0,1-1,3.42,11.17,11.17,0,0,1-1.08,1.8,3.33,3.33,0,0,1-1,.94,1.71,1.71,0,0,1-1,.2,2.74,2.74,0,0,1-1.09-.36l-29.63-15.27a3,3,0,0,1-1.33-1.2,5,5,0,0,1-.42-2.37,5.08,5.08,0,0,1,.42-2.38,2.94,2.94,0,0,1,1.33-1.19l29.63-15.28a3.1,3.1,0,0,1,1.09-.36,1.64,1.64,0,0,1,1,.21,3.41,3.41,0,0,1,1,.93,11.17,11.17,0,0,1,1.08,1.8,6.71,6.71,0,0,1,1,3.42,2.25,2.25,0,0,1-1.37,1.75L272.12,406Z"/><path d="M316.27,438.3a1.91,1.91,0,0,1-1.1.95,4.87,4.87,0,0,1-1.79.31,8.76,8.76,0,0,1-2.28-.32,7,7,0,0,1-2.07-.92,3.7,3.7,0,0,1-1.31-1.4,2,2,0,0,1,0-1.81l25.15-56.54a2,2,0,0,1,1.12-1,5.11,5.11,0,0,1,1.84-.32,8.56,8.56,0,0,1,2.26.32,7.17,7.17,0,0,1,2.06.92,3.64,3.64,0,0,1,1.29,1.4,2.1,2.1,0,0,1-.06,1.84Z"/><path d="M354.83,394.91a2.24,2.24,0,0,1-1.36-1.75,6.68,6.68,0,0,1,1-3.42,11.12,11.12,0,0,1,1.09-1.8,3.39,3.39,0,0,1,1-.93,1.67,1.67,0,0,1,1-.21,3.12,3.12,0,0,1,1.08.36l29.64,15.28a3,3,0,0,1,1.33,1.19A5.08,5.08,0,0,1,390,406a5,5,0,0,1-.42,2.37,3,3,0,0,1-1.33,1.2l-29.64,15.27a2.75,2.75,0,0,1-1.08.36,1.74,1.74,0,0,1-1-.2,3.31,3.31,0,0,1-1-.94,11.12,11.12,0,0,1-1.09-1.8,6.68,6.68,0,0,1-1-3.42,2.25,2.25,0,0,1,1.36-1.75L377.06,406Z"/><path d="M255,272.12a39,39,0,0,1-6.22-4.43,31.08,31.08,0,0,1-5.48-6.18,32,32,0,0,1-3.89-8,33.6,33.6,0,0,1,0-19.66,32,32,0,0,1,3.89-8,31.08,31.08,0,0,1,5.48-6.18,39,39,0,0,1,6.22-4.43,1.9,1.9,0,0,1,2.06.08,6.47,6.47,0,0,1,1.93,1.91,9,9,0,0,1,.73,1.36,6,6,0,0,1,.4,1.3,2.72,2.72,0,0,1,0,1.07,1.1,1.1,0,0,1-.51.72,38.41,38.41,0,0,0-5.72,4.33,25.06,25.06,0,0,0-4.2,5,22.4,22.4,0,0,0-2.6,5.84,26.06,26.06,0,0,0,0,13.58,22.4,22.4,0,0,0,2.6,5.84,25.06,25.06,0,0,0,4.2,5,39.1,39.1,0,0,0,5.72,4.33,1.23,1.23,0,0,1,.51.73,2.66,2.66,0,0,1,0,1.06,6,6,0,0,1-.4,1.3,9,9,0,0,1-.73,1.36A6.47,6.47,0,0,1,257,272,1.9,1.9,0,0,1,255,272.12Z"/><path d="M285.3,272.12a1.9,1.9,0,0,1-2.06-.08,6.33,6.33,0,0,1-1.92-1.91,7.73,7.73,0,0,1-.77-1.36,6,6,0,0,1-.4-1.3,2.47,2.47,0,0,1,0-1.06,1.26,1.26,0,0,1,.53-.73,39,39,0,0,0,5.71-4.33,25.06,25.06,0,0,0,4.2-5,22.42,22.42,0,0,0,2.61-5.84,26.35,26.35,0,0,0,0-13.58,22.42,22.42,0,0,0-2.61-5.84,25.06,25.06,0,0,0-4.2-5,38.31,38.31,0,0,0-5.71-4.33,1.13,1.13,0,0,1-.53-.72,2.53,2.53,0,0,1,0-1.07,6,6,0,0,1,.4-1.3,7.73,7.73,0,0,1,.77-1.36,6.33,6.33,0,0,1,1.92-1.91,1.9,1.9,0,0,1,2.06-.08,39.53,39.53,0,0,1,6.23,4.43,31.72,31.72,0,0,1,5.48,6.18,32.32,32.32,0,0,1,3.88,8,33.38,33.38,0,0,1,0,19.66,32.32,32.32,0,0,1-3.88,8,31.72,31.72,0,0,1-5.48,6.18A39.53,39.53,0,0,1,285.3,272.12Z"/><path d="M345,272.12a39,39,0,0,1-6.22-4.43,31.08,31.08,0,0,1-5.48-6.18,32,32,0,0,1-3.89-8,33.6,33.6,0,0,1,0-19.66,32,32,0,0,1,3.89-8,31.08,31.08,0,0,1,5.48-6.18,39,39,0,0,1,6.22-4.43,1.9,1.9,0,0,1,2.06.08,6.47,6.47,0,0,1,1.93,1.91,9,9,0,0,1,.73,1.36,6,6,0,0,1,.4,1.3,2.72,2.72,0,0,1,0,1.07,1.1,1.1,0,0,1-.51.72,38.41,38.41,0,0,0-5.72,4.33,25.06,25.06,0,0,0-4.2,5,22.4,22.4,0,0,0-2.6,5.84,26.06,26.06,0,0,0,0,13.58,22.4,22.4,0,0,0,2.6,5.84,25.06,25.06,0,0,0,4.2,5,39.1,39.1,0,0,0,5.72,4.33,1.23,1.23,0,0,1,.51.73,2.66,2.66,0,0,1,0,1.06,6,6,0,0,1-.4,1.3,9,9,0,0,1-.73,1.36A6.47,6.47,0,0,1,347,272,1.9,1.9,0,0,1,345,272.12Z"/><path d="M375.3,272.12a1.9,1.9,0,0,1-2.06-.08,6.33,6.33,0,0,1-1.92-1.91,7.73,7.73,0,0,1-.77-1.36,6,6,0,0,1-.4-1.3,2.47,2.47,0,0,1,0-1.06,1.26,1.26,0,0,1,.53-.73,39,39,0,0,0,5.71-4.33,25.06,25.06,0,0,0,4.2-5,22.42,22.42,0,0,0,2.61-5.84,26.35,26.35,0,0,0,0-13.58,22.42,22.42,0,0,0-2.61-5.84,25.06,25.06,0,0,0-4.2-5,38.31,38.31,0,0,0-5.71-4.33,1.13,1.13,0,0,1-.53-.72,2.53,2.53,0,0,1,0-1.07,6,6,0,0,1,.4-1.3,7.73,7.73,0,0,1,.77-1.36,6.33,6.33,0,0,1,1.92-1.91,1.9,1.9,0,0,1,2.06-.08,39.53,39.53,0,0,1,6.23,4.43,31.72,31.72,0,0,1,5.48,6.18,32.32,32.32,0,0,1,3.88,8,33.38,33.38,0,0,1,0,19.66,32.32,32.32,0,0,1-3.88,8,31.72,31.72,0,0,1-5.48,6.18A39.53,39.53,0,0,1,375.3,272.12Z"/><path d="M315.67,324.17a9.32,9.32,0,0,1-3.77-.77,9.62,9.62,0,0,1-3.08-2.06,9.78,9.78,0,0,1-2.07-3.06,9.42,9.42,0,0,1-.77-3.8,9.57,9.57,0,0,1,.77-3.78,9.76,9.76,0,0,1,2.07-3.08,9.62,9.62,0,0,1,3.08-2.06,9.71,9.71,0,0,1,7.58,0,9.66,9.66,0,0,1,5.12,5.14,9.57,9.57,0,0,1,.77,3.78,9.42,9.42,0,0,1-.77,3.8,9.71,9.71,0,0,1-5.12,5.12A9.34,9.34,0,0,1,315.67,324.17Zm28.74,0a9.33,9.33,0,0,1-3.78-.77,9.62,9.62,0,0,1-3.08-2.06,9.78,9.78,0,0,1-2.07-3.06,9.42,9.42,0,0,1-.77-3.8,9.57,9.57,0,0,1,.77-3.78,9.76,9.76,0,0,1,2.07-3.08,9.62,9.62,0,0,1,3.08-2.06,9.71,9.71,0,0,1,7.58,0,9.66,9.66,0,0,1,5.12,5.14,9.57,9.57,0,0,1,.77,3.78,9.42,9.42,0,0,1-.77,3.8,9.71,9.71,0,0,1-5.12,5.12A9.32,9.32,0,0,1,344.41,324.17Z"/><path d="M436,155.31V411.58A63.49,63.49,0,0,1,372.58,475h-206a107.16,107.16,0,0,1-12,31H372.58A94.53,94.53,0,0,0,467,411.58V141.41A107.38,107.38,0,0,1,436,155.31Z"/><path d="M506,51a98.11,98.11,0,0,1-98,98H159V452a98.11,98.11,0,0,1-98,98V517a65.08,65.08,0,0,0,65-65V429.39A100.05,100.05,0,0,1,60,454V421c36.39,0,66-28.5,66-63.53V116H408a65.08,65.08,0,0,0,65-65Z"/></svg>