<svg id="Layer_1" data-name="Layer 1" xmlns="http://www.w3.org/2000/svg" viewBox="0 0 600 600"><path d="M453,154.81V411.08a63.49,63.49,0,0,1-63.42,63.42h-206a107.16,107.16,0,0,1-12,31H389.58A94.53,94.53,0,0,0,484,411.08V140.91A107.38,107.38,0,0,1,453,154.81Z"/><path d="M523,50.5a98.11,98.11,0,0,1-98,98H176v303a98.11,98.11,0,0,1-98,98v-33a65.08,65.08,0,0,0,65-65V428.89a100.05,100.05,0,0,1-66,24.64v-33c36.39,0,66-28.5,66-63.53V115.5H425a65.08,65.08,0,0,0,65-65Z"/><path d="M314.64,419a2.83,2.83,0,0,1,1.71,2.18,8.47,8.47,0,0,1-1.24,4.28,13.69,13.69,0,0,1-1.35,2.25,4.26,4.26,0,0,1-1.26,1.16,2.1,2.1,0,0,1-1.26.26,3.58,3.58,0,0,1-1.35-.45l-37-19.08a3.8,3.8,0,0,1-1.66-1.49,8.74,8.74,0,0,1,0-5.94,3.8,3.8,0,0,1,1.66-1.49l37-19.08a4,4,0,0,1,1.35-.45,2.1,2.1,0,0,1,1.26.26,4.26,4.26,0,0,1,1.26,1.16,13.83,13.83,0,0,1,1.35,2.26,8.44,8.44,0,0,1,1.24,4.27,2.81,2.81,0,0,1-1.71,2.18L286.87,405.1Z"/><path d="M342,445.44a2.34,2.34,0,0,1-1.37,1.19,6.32,6.32,0,0,1-2.23.38,10.7,10.7,0,0,1-2.85-.4,9.12,9.12,0,0,1-2.59-1.14,4.72,4.72,0,0,1-1.64-1.76,2.48,2.48,0,0,1,.05-2.25l31.42-70.63a2.47,2.47,0,0,1,1.4-1.21,6.2,6.2,0,0,1,2.3-.4,10.5,10.5,0,0,1,2.83.4,9.06,9.06,0,0,1,2.56,1.14,4.58,4.58,0,0,1,1.62,1.76,2.63,2.63,0,0,1-.08,2.3Z"/><path d="M390.2,391.24a2.81,2.81,0,0,1-1.71-2.18c-.13-.95.28-2.37,1.23-4.27a14.53,14.53,0,0,1,1.36-2.26,4.13,4.13,0,0,1,1.25-1.16,2.13,2.13,0,0,1,1.26-.26,4,4,0,0,1,1.36.45l37,19.08a3.8,3.8,0,0,1,1.66,1.49,8.74,8.74,0,0,1,0,5.94,3.8,3.8,0,0,1-1.66,1.49l-37,19.08a3.56,3.56,0,0,1-1.36.45,2.13,2.13,0,0,1-1.26-.26,4.13,4.13,0,0,1-1.25-1.16,14.37,14.37,0,0,1-1.36-2.25c-1-1.9-1.36-3.33-1.23-4.28A2.83,2.83,0,0,1,390.2,419L418,405.1Z"/><path d="M360.79,233.71a13.65,13.65,0,0,1,2.23,1.67,9.67,9.67,0,0,1,1.73,2.13,10.4,10.4,0,0,1,1.13,2.66,12.06,12.06,0,0,1,.4,3.23v7q0,3.47,1.37,5a5.12,5.12,0,0,0,4.08,1.57,3,3,0,0,1,1,.14,1.32,1.32,0,0,1,.68.51,2.89,2.89,0,0,1,.38,1.08,11,11,0,0,1,.12,1.81,10.89,10.89,0,0,1-.12,1.8,3,3,0,0,1-.38,1.1,1.38,1.38,0,0,1-.68.54,3.35,3.35,0,0,1-1,.13q-6.94,0-10.54-3.28c-2.39-2.19-3.59-5.52-3.59-10v-7a7.06,7.06,0,0,0-1.46-4.81q-1.45-1.65-4.79-1.65a3.33,3.33,0,0,1-1-.14,1.22,1.22,0,0,1-.67-.54,2.77,2.77,0,0,1-.39-1.09,11.11,11.11,0,0,1-.12-1.81,10.89,10.89,0,0,1,.12-1.8,2.6,2.6,0,0,1,.39-1.08,1.23,1.23,0,0,1,.67-.52,3.33,3.33,0,0,1,1-.14q3.33,0,4.79-1.65a7.06,7.06,0,0,0,1.46-4.81v-5.52q0-6.7,3.59-10t10.54-3.3a3.33,3.33,0,0,1,1,.14,1.27,1.27,0,0,1,.68.54,3,3,0,0,1,.38,1.09,11,11,0,0,1,.12,1.81,10.89,10.89,0,0,1-.12,1.8,2.76,2.76,0,0,1-.38,1.08,1.28,1.28,0,0,1-.68.52,3.33,3.33,0,0,1-1,.14,5.15,5.15,0,0,0-4.08,1.56q-1.36,1.56-1.37,5v5.45a12.06,12.06,0,0,1-.4,3.23A10,10,0,0,1,363,232,13.65,13.65,0,0,1,360.79,233.71Z"/><path d="M408.57,233.71a13.16,13.16,0,0,1-2.22-1.67,10.4,10.4,0,0,1-1.74-2.11,10.09,10.09,0,0,1-1.12-2.64,12.06,12.06,0,0,1-.4-3.23v-5.45q0-3.48-1.38-5a5.13,5.13,0,0,0-4.08-1.56,3.26,3.26,0,0,1-1-.14,1.25,1.25,0,0,1-.68-.52,2.76,2.76,0,0,1-.38-1.08,10.89,10.89,0,0,1-.12-1.8,11,11,0,0,1,.12-1.81,3,3,0,0,1,.38-1.09,1.24,1.24,0,0,1,.68-.54,3.26,3.26,0,0,1,1-.14q6.94,0,10.54,3.3t3.6,10v5.52a7.06,7.06,0,0,0,1.45,4.81c1,1.1,2.57,1.65,4.8,1.65a3.21,3.21,0,0,1,1,.14,1.25,1.25,0,0,1,.68.52,2.76,2.76,0,0,1,.38,1.08,10.89,10.89,0,0,1,.12,1.8,11.11,11.11,0,0,1-.12,1.81,2.94,2.94,0,0,1-.38,1.09,1.24,1.24,0,0,1-.68.54,3.21,3.21,0,0,1-1,.14c-2.23,0-3.82.55-4.8,1.65a7.06,7.06,0,0,0-1.45,4.81v7c0,4.5-1.2,7.83-3.6,10s-5.91,3.28-10.54,3.28a3.28,3.28,0,0,1-1-.13,1.33,1.33,0,0,1-.68-.54,3,3,0,0,1-.38-1.1,10.89,10.89,0,0,1-.12-1.8,11,11,0,0,1,.12-1.81,2.89,2.89,0,0,1,.38-1.08,1.28,1.28,0,0,1,.68-.51,3,3,0,0,1,1-.14,5.1,5.1,0,0,0,4.08-1.57q1.38-1.56,1.38-5v-7a12.06,12.06,0,0,1,.4-3.23,10.38,10.38,0,0,1,1.12-2.66,10,10,0,0,1,1.74-2.13A13.16,13.16,0,0,1,408.57,233.71Z"/><path d="M284.22,263.67a39.81,39.81,0,0,1-6.23-4.44,31.34,31.34,0,0,1-5.48-6.17,32,32,0,0,1-3.88-8,33.35,33.35,0,0,1,0-19.65,32,32,0,0,1,3.88-8,31.34,31.34,0,0,1,5.48-6.17,39.81,39.81,0,0,1,6.23-4.44,1.91,1.91,0,0,1,2.06.09,6.44,6.44,0,0,1,1.92,1.91,8.51,8.51,0,0,1,.73,1.36,5.72,5.72,0,0,1,.4,1.29,2.59,2.59,0,0,1,0,1.08,1.05,1.05,0,0,1-.51.71,39,39,0,0,0-5.71,4.34,25.29,25.29,0,0,0-4.2,5,22.49,22.49,0,0,0-2.61,5.85,26.06,26.06,0,0,0,0,13.58,22.42,22.42,0,0,0,2.61,5.84,25.29,25.29,0,0,0,4.2,5,38.35,38.35,0,0,0,5.71,4.34,1.16,1.16,0,0,1,.51.73,2.49,2.49,0,0,1,0,1.06,5.72,5.72,0,0,1-.4,1.29,8.51,8.51,0,0,1-.73,1.36,6.44,6.44,0,0,1-1.92,1.91A1.91,1.91,0,0,1,284.22,263.67Z"/><path d="M314.56,263.67a1.89,1.89,0,0,1-2.05-.09,6.36,6.36,0,0,1-1.93-1.91,7.33,7.33,0,0,1-.76-1.36,5.25,5.25,0,0,1-.4-1.29,2.33,2.33,0,0,1,0-1.06,1.28,1.28,0,0,1,.53-.73,38.35,38.35,0,0,0,5.71-4.34,25.29,25.29,0,0,0,4.2-5A22.42,22.42,0,0,0,322.5,242a26.06,26.06,0,0,0,0-13.58,22.49,22.49,0,0,0-2.61-5.85,25.29,25.29,0,0,0-4.2-5,39,39,0,0,0-5.71-4.34,1.14,1.14,0,0,1-.53-.71,2.42,2.42,0,0,1,0-1.08,5.25,5.25,0,0,1,.4-1.29,7.33,7.33,0,0,1,.76-1.36,6.36,6.36,0,0,1,1.93-1.91,1.89,1.89,0,0,1,2.05-.09,39.81,39.81,0,0,1,6.23,4.44,31.34,31.34,0,0,1,5.48,6.17,32,32,0,0,1,3.88,8,33.35,33.35,0,0,1,0,19.65,32,32,0,0,1-3.88,8,31.34,31.34,0,0,1-5.48,6.17A39.81,39.81,0,0,1,314.56,263.67Z"/><path d="M343.94,331.72a9.5,9.5,0,0,1-3.78-.77,9.6,9.6,0,0,1-3.08-2.07,9.71,9.71,0,0,1-2.06-3.05,9.71,9.71,0,0,1,0-7.58,9.58,9.58,0,0,1,5.14-5.15,9.71,9.71,0,0,1,7.58,0,9.63,9.63,0,0,1,5.12,5.15,9.71,9.71,0,0,1,0,7.58,9.71,9.71,0,0,1-5.12,5.12A9.42,9.42,0,0,1,343.94,331.72Zm28.73,0a9.5,9.5,0,0,1-3.78-.77,9.6,9.6,0,0,1-3.08-2.07,9.71,9.71,0,0,1-2.06-3.05,9.71,9.71,0,0,1,0-7.58,9.58,9.58,0,0,1,5.14-5.15,9.71,9.71,0,0,1,7.58,0,9.63,9.63,0,0,1,5.12,5.15,9.71,9.71,0,0,1,0,7.58,9.71,9.71,0,0,1-5.12,5.12A9.45,9.45,0,0,1,372.67,331.72Z"/></svg>