<svg id="Layer_1" data-name="Layer 1" xmlns="http://www.w3.org/2000/svg" viewBox="0 0 600 600"><path d="M437,150.46V402.58A63.49,63.49,0,0,1,373.58,466h-202a111.28,111.28,0,0,1-11.53,31H373.58A94.53,94.53,0,0,0,468,402.58V137.16A111.69,111.69,0,0,1,437,150.46Z"/><path d="M474,42a65.08,65.08,0,0,1-65,65H127V443a65.08,65.08,0,0,1-65,65v33a98.11,98.11,0,0,0,98-98V140H409a98.11,98.11,0,0,0,98-98Z"/><path d="M309.35,414.66a2.57,2.57,0,0,1,1.58,2,7.82,7.82,0,0,1-1.14,3.93,12.88,12.88,0,0,1-1.25,2.08,3.87,3.87,0,0,1-1.15,1.07,2,2,0,0,1-1.16.24,3.76,3.76,0,0,1-1.25-.42L270.9,406a3.38,3.38,0,0,1-1.53-1.37,8,8,0,0,1,0-5.46,3.46,3.46,0,0,1,1.53-1.38L305,380.22a3.52,3.52,0,0,1,1.25-.41,1.87,1.87,0,0,1,1.16.24,3.74,3.74,0,0,1,1.15,1.07,12.73,12.73,0,0,1,1.25,2.07,7.83,7.83,0,0,1,1.14,3.94,2.6,2.6,0,0,1-1.58,2L283.79,401.9Z"/><path d="M334.57,439a2.17,2.17,0,0,1-1.27,1.09,5.58,5.58,0,0,1-2.05.35,9.87,9.87,0,0,1-2.63-.37,8.47,8.47,0,0,1-2.38-1.05,4.35,4.35,0,0,1-1.51-1.61,2.28,2.28,0,0,1,0-2.08l28.93-65a2.23,2.23,0,0,1,1.29-1.12,5.83,5.83,0,0,1,2.11-.37,9.89,9.89,0,0,1,2.6.37,8.34,8.34,0,0,1,2.36,1,4.09,4.09,0,0,1,1.49,1.62,2.41,2.41,0,0,1-.07,2.12Z"/><path d="M378.92,389.14a2.59,2.59,0,0,1-1.57-2,7.69,7.69,0,0,1,1.13-3.94,12.73,12.73,0,0,1,1.25-2.07,3.76,3.76,0,0,1,1.16-1.07,1.83,1.83,0,0,1,1.15-.24,3.45,3.45,0,0,1,1.25.41l34.08,17.57a3.46,3.46,0,0,1,1.53,1.38,8,8,0,0,1,0,5.46,3.38,3.38,0,0,1-1.53,1.37l-34.08,17.57A3.69,3.69,0,0,1,382,424a2,2,0,0,1-1.15-.24,3.89,3.89,0,0,1-1.16-1.07,12.88,12.88,0,0,1-1.25-2.08,7.68,7.68,0,0,1-1.13-3.93,2.56,2.56,0,0,1,1.57-2l25.56-12.76Z"/><path d="M349.58,228.16a13.11,13.11,0,0,1,2.22,1.66,10,10,0,0,1,2.86,4.8,12,12,0,0,1,.4,3.23v7q0,3.48,1.37,5a5.16,5.16,0,0,0,4.08,1.56,3.28,3.28,0,0,1,1,.14,1.34,1.34,0,0,1,.68.52,2.82,2.82,0,0,1,.38,1.08,10.89,10.89,0,0,1,.12,1.8,11,11,0,0,1-.12,1.81,2.94,2.94,0,0,1-.38,1.09,1.27,1.27,0,0,1-.68.54,3.28,3.28,0,0,1-1,.14q-6.94,0-10.53-3.28t-3.6-10v-7.05a7,7,0,0,0-1.46-4.81q-1.46-1.65-4.79-1.65a3.35,3.35,0,0,1-1-.13,1.35,1.35,0,0,1-.67-.54,2.83,2.83,0,0,1-.38-1.1,9.77,9.77,0,0,1-.13-1.8,10,10,0,0,1,.13-1.81,2.61,2.61,0,0,1,.38-1.07,1.26,1.26,0,0,1,.67-.52,3,3,0,0,1,1-.14q3.33,0,4.79-1.65a7,7,0,0,0,1.46-4.81v-5.52q0-6.7,3.6-10t10.53-3.3a3,3,0,0,1,1,.14,1.27,1.27,0,0,1,.68.54,2.94,2.94,0,0,1,.38,1.09,13.64,13.64,0,0,1,0,3.61,2.89,2.89,0,0,1-.38,1.08,1.34,1.34,0,0,1-.68.52,3.28,3.28,0,0,1-1,.14,5.16,5.16,0,0,0-4.08,1.56q-1.37,1.56-1.37,5v5.45a12,12,0,0,1-.4,3.23,9.81,9.81,0,0,1-1.12,2.64,10.2,10.2,0,0,1-1.74,2.12A13.16,13.16,0,0,1,349.58,228.16Z"/><path d="M397.36,228.16a12.85,12.85,0,0,1-2.23-1.67,9.85,9.85,0,0,1-1.73-2.12,9.52,9.52,0,0,1-1.13-2.64,12,12,0,0,1-.4-3.23v-5.45q0-3.47-1.37-5a5.16,5.16,0,0,0-4.08-1.56,3.28,3.28,0,0,1-1-.14,1.34,1.34,0,0,1-.68-.52,2.89,2.89,0,0,1-.38-1.08,13.64,13.64,0,0,1,0-3.61,2.94,2.94,0,0,1,.38-1.09,1.27,1.27,0,0,1,.68-.54,3,3,0,0,1,1-.14q6.94,0,10.54,3.3t3.59,10v5.52A7.07,7.07,0,0,0,402,223q1.46,1.65,4.79,1.65a3,3,0,0,1,1,.14,1.26,1.26,0,0,1,.67.52,2.76,2.76,0,0,1,.39,1.07,11.11,11.11,0,0,1,.12,1.81,10.89,10.89,0,0,1-.12,1.8,3,3,0,0,1-.39,1.1,1.35,1.35,0,0,1-.67.54,3.35,3.35,0,0,1-1,.13q-3.33,0-4.79,1.65a7.07,7.07,0,0,0-1.46,4.81v7.05q0,6.73-3.59,10t-10.54,3.28a3.28,3.28,0,0,1-1-.14,1.27,1.27,0,0,1-.68-.54,2.94,2.94,0,0,1-.38-1.09,11,11,0,0,1-.12-1.81,10.89,10.89,0,0,1,.12-1.8,2.82,2.82,0,0,1,.38-1.08,1.34,1.34,0,0,1,.68-.52,3.28,3.28,0,0,1,1-.14,5.16,5.16,0,0,0,4.08-1.56q1.37-1.56,1.37-5v-7a12,12,0,0,1,.4-3.23,10.18,10.18,0,0,1,2.86-4.8A12.8,12.8,0,0,1,397.36,228.16Z"/><path d="M273,258.11a39.53,39.53,0,0,1-6.23-4.43,31.35,31.35,0,0,1-5.47-6.18,31.83,31.83,0,0,1-3.89-8,33.38,33.38,0,0,1,0-19.66,32.17,32.17,0,0,1,3.89-8,31.35,31.35,0,0,1,5.47-6.18,39.53,39.53,0,0,1,6.23-4.43,1.9,1.9,0,0,1,2.06.08,6.33,6.33,0,0,1,1.92,1.91,9,9,0,0,1,.74,1.36,5.88,5.88,0,0,1,.39,1.3,2.78,2.78,0,0,1,0,1.08,1.06,1.06,0,0,1-.52.71,39.54,39.54,0,0,0-5.71,4.33,25.06,25.06,0,0,0-4.2,5,22.42,22.42,0,0,0-2.61,5.84,26.35,26.35,0,0,0,0,13.58,22.64,22.64,0,0,0,2.61,5.85,25.29,25.29,0,0,0,4.2,5,38.83,38.83,0,0,0,5.71,4.33,1.21,1.21,0,0,1,.52.73,2.68,2.68,0,0,1,0,1.06,5.88,5.88,0,0,1-.39,1.3,9,9,0,0,1-.74,1.36,6.33,6.33,0,0,1-1.92,1.91A1.9,1.9,0,0,1,273,258.11Z"/><path d="M303.35,258.11a1.9,1.9,0,0,1-2.06-.08,6.47,6.47,0,0,1-1.93-1.91,7.67,7.67,0,0,1-.76-1.36,6,6,0,0,1-.4-1.3,2.66,2.66,0,0,1,0-1.06,1.28,1.28,0,0,1,.54-.73,38.83,38.83,0,0,0,5.71-4.33,25.29,25.29,0,0,0,4.2-5,22.28,22.28,0,0,0,2.6-5.85,26.06,26.06,0,0,0,0-13.58,22.07,22.07,0,0,0-2.6-5.84,25.06,25.06,0,0,0-4.2-5,39.54,39.54,0,0,0-5.71-4.33,1.12,1.12,0,0,1-.54-.71,2.76,2.76,0,0,1,0-1.08,6,6,0,0,1,.4-1.3,7.67,7.67,0,0,1,.76-1.36,6.47,6.47,0,0,1,1.93-1.91,1.9,1.9,0,0,1,2.06-.08,39,39,0,0,1,6.22,4.43,31.08,31.08,0,0,1,5.48,6.18,32.17,32.17,0,0,1,3.89,8,33.6,33.6,0,0,1,0,19.66,31.83,31.83,0,0,1-3.89,8,31.08,31.08,0,0,1-5.48,6.18A39,39,0,0,1,303.35,258.11Z"/><path d="M332.72,326.17a9.57,9.57,0,0,1-3.78-.77,9.93,9.93,0,0,1-3.08-2.07,9.83,9.83,0,0,1-2.06-3.05,9.71,9.71,0,0,1,0-7.58,9.78,9.78,0,0,1,2.06-3.09,9.9,9.9,0,0,1,3.08-2.06,9.57,9.57,0,0,1,3.78-.77,9.42,9.42,0,0,1,3.8.77,9.93,9.93,0,0,1,3.06,2.06,9.78,9.78,0,0,1,2.06,3.09,9.71,9.71,0,0,1,0,7.58,9.83,9.83,0,0,1-2.06,3.05,10,10,0,0,1-3.06,2.07A9.42,9.42,0,0,1,332.72,326.17Zm28.73,0a9.57,9.57,0,0,1-3.78-.77,9.93,9.93,0,0,1-3.08-2.07,9.83,9.83,0,0,1-2.06-3.05,9.71,9.71,0,0,1,0-7.58,9.78,9.78,0,0,1,2.06-3.09,9.9,9.9,0,0,1,3.08-2.06,9.57,9.57,0,0,1,3.78-.77,9.42,9.42,0,0,1,3.8.77,9.93,9.93,0,0,1,3.06,2.06,9.78,9.78,0,0,1,2.06,3.09,9.71,9.71,0,0,1,0,7.58,9.83,9.83,0,0,1-2.06,3.05,10,10,0,0,1-3.06,2.07A9.42,9.42,0,0,1,361.45,326.17Z"/></svg>