<svg width="600" height="600" viewBox="0 0 600 600" fill="none" xmlns="http://www.w3.org/2000/svg">
<g id="Frame 1">
<g id="Business-in-the-front-logo-16">
<path id="face" d="M453 154.81V411.08C452.981 427.894 446.294 444.015 434.404 455.904C422.515 467.794 406.394 474.482 389.58 474.5H183.58C181.217 485.395 177.168 495.854 171.58 505.5H389.58C414.613 505.471 438.612 495.514 456.313 477.813C474.014 460.112 483.971 436.113 484 411.08V140.91C474.47 147.159 464.005 151.851 453 154.81Z" fill="black"/>
<path id="hair" d="M523 50.5C522.971 76.4823 512.637 101.392 494.264 119.764C475.892 138.137 450.982 148.471 425 148.5H176V451.5C175.971 477.482 165.637 502.392 147.264 520.764C128.892 539.137 103.982 549.471 78 549.5V516.5C95.2326 516.479 111.753 509.624 123.939 497.439C136.124 485.253 142.979 468.733 143 451.5V428.89C124.715 444.833 101.26 453.59 77 453.53V420.53C113.39 420.53 143 392.03 143 357V115.5H425C442.233 115.479 458.753 108.624 470.939 96.4386C483.124 84.2533 489.979 67.7326 490 50.5H523Z" fill="black"/>
<path id="tounge" d="M342 445.44C341.862 445.72 341.67 445.969 341.435 446.173C341.2 446.378 340.926 446.533 340.63 446.63C339.916 446.89 339.16 447.019 338.4 447.01C337.436 447.006 336.478 446.871 335.55 446.61C334.633 446.367 333.759 445.982 332.96 445.47C332.27 445.035 331.705 444.428 331.32 443.71C331.15 443.358 331.066 442.97 331.075 442.579C331.084 442.188 331.185 441.805 331.37 441.46L362.79 370.83C363.082 370.261 363.584 369.827 364.19 369.62C364.924 369.342 365.705 369.207 366.49 369.22C367.447 369.224 368.399 369.358 369.32 369.62C370.227 369.865 371.091 370.25 371.88 370.76C372.566 371.193 373.125 371.8 373.5 372.52C373.662 372.884 373.739 373.281 373.725 373.679C373.711 374.078 373.607 374.468 373.42 374.82L342 445.44Z" fill="black"/>
<g id="mouth">
<path id="Vector" d="M314.64 419C315.088 419.186 315.481 419.485 315.78 419.866C316.079 420.248 316.276 420.701 316.35 421.18C316.326 422.692 315.898 424.17 315.11 425.46C314.733 426.252 314.281 427.005 313.76 427.71C313.423 428.178 312.994 428.573 312.5 428.87C312.118 429.086 311.677 429.177 311.24 429.13C310.764 429.072 310.305 428.919 309.89 428.68L272.89 409.6C272.2 409.281 271.622 408.762 271.23 408.11C270.537 406.191 270.537 404.089 271.23 402.17C271.622 401.518 272.2 400.999 272.89 400.68L309.89 381.6C310.309 381.371 310.767 381.218 311.24 381.15C311.677 381.103 312.118 381.194 312.5 381.41C312.994 381.707 313.423 382.102 313.76 382.57C314.281 383.279 314.733 384.035 315.11 384.83C315.898 386.117 316.326 387.591 316.35 389.1C316.278 389.58 316.082 390.033 315.782 390.415C315.483 390.797 315.089 391.095 314.64 391.28L286.87 405.1L314.64 419Z" fill="black"/>
<path id="Vector_2" d="M390.2 391.24C389.751 391.055 389.357 390.757 389.058 390.375C388.758 389.993 388.562 389.54 388.49 389.06C388.36 388.11 388.77 386.69 389.72 384.79C390.104 383.997 390.559 383.241 391.08 382.53C391.411 382.061 391.837 381.665 392.33 381.37C392.713 381.156 393.153 381.065 393.59 381.11C394.067 381.177 394.527 381.329 394.95 381.56L431.95 400.64C432.64 400.959 433.218 401.478 433.61 402.13C434.303 404.049 434.303 406.151 433.61 408.07C433.218 408.722 432.64 409.241 431.95 409.56L394.95 428.64C394.532 428.881 394.069 429.034 393.59 429.09C393.153 429.135 392.713 429.044 392.33 428.83C391.837 428.534 391.411 428.139 391.08 427.67C390.559 426.963 390.104 426.21 389.72 425.42C388.72 423.52 388.36 422.09 388.49 421.14C388.571 420.668 388.77 420.224 389.069 419.849C389.368 419.475 389.757 419.183 390.2 419L418 405.1L390.2 391.24Z" fill="black"/>
</g>
<g id="right-eye">
<path id="Vector_3" d="M360.79 233.71C361.588 234.189 362.336 234.749 363.02 235.38C363.695 236.004 364.278 236.721 364.75 237.51C365.249 238.34 365.629 239.235 365.88 240.17C366.159 241.224 366.293 242.31 366.28 243.4V250.4C366.28 252.713 366.737 254.38 367.65 255.4C368.172 255.947 368.809 256.371 369.514 256.642C370.219 256.914 370.976 257.026 371.73 256.97C372.069 256.96 372.407 257.007 372.73 257.11C373.007 257.2 373.246 257.38 373.41 257.62C373.607 257.951 373.737 258.318 373.79 258.7C373.88 259.299 373.92 259.904 373.91 260.51C373.92 261.112 373.88 261.714 373.79 262.31C373.736 262.698 373.607 263.072 373.41 263.41C373.247 263.658 373.009 263.848 372.73 263.95C372.405 264.044 372.068 264.087 371.73 264.08C367.103 264.08 363.59 262.987 361.19 260.8C358.8 258.61 357.6 255.28 357.6 250.8V243.8C357.72 242.072 357.2 240.36 356.14 238.99C355.173 237.89 353.577 237.34 351.35 237.34C351.011 237.344 350.674 237.297 350.35 237.2C350.068 237.107 349.83 236.915 349.68 236.66C349.475 236.328 349.342 235.957 349.29 235.57C349.201 234.971 349.161 234.366 349.17 233.76C349.16 233.158 349.2 232.556 349.29 231.96C349.338 231.575 349.471 231.206 349.68 230.88C349.835 230.633 350.072 230.448 350.35 230.36C350.674 230.263 351.011 230.216 351.35 230.22C353.57 230.22 355.167 229.67 356.14 228.57C357.2 227.2 357.72 225.488 357.6 223.76V218.24C357.6 213.773 358.797 210.44 361.19 208.24C363.583 206.04 367.097 204.94 371.73 204.94C372.069 204.936 372.406 204.983 372.73 205.08C373.013 205.174 373.254 205.366 373.41 205.62C373.606 205.955 373.735 206.325 373.79 206.71C373.88 207.309 373.92 207.914 373.91 208.52C373.92 209.122 373.88 209.724 373.79 210.32C373.74 210.703 373.611 211.07 373.41 211.4C373.25 211.646 373.01 211.83 372.73 211.92C372.406 212.017 372.069 212.064 371.73 212.06C370.977 212.005 370.221 212.116 369.516 212.386C368.811 212.656 368.174 213.077 367.65 213.62C366.743 214.66 366.287 216.327 366.28 218.62V224.07C366.293 225.16 366.159 226.246 365.88 227.3C365.379 229.106 364.381 230.734 363 232C362.324 232.644 361.583 233.217 360.79 233.71V233.71Z" fill="black"/>
<path id="Vector_4" d="M408.57 233.71C407.773 233.233 407.029 232.673 406.35 232.04C405.68 231.416 405.095 230.707 404.61 229.93C404.113 229.108 403.736 228.219 403.49 227.29C403.211 226.236 403.077 225.15 403.09 224.06V218.61C403.09 216.29 402.63 214.623 401.71 213.61C401.187 213.066 400.55 212.644 399.844 212.374C399.139 212.104 398.383 211.994 397.63 212.05C397.291 212.056 396.954 212.008 396.63 211.91C396.349 211.822 396.108 211.638 395.95 211.39C395.749 211.061 395.62 210.693 395.57 210.31C395.48 209.714 395.44 209.112 395.45 208.51C395.44 207.904 395.48 207.299 395.57 206.7C395.625 206.316 395.754 205.945 395.95 205.61C396.104 205.354 396.346 205.162 396.63 205.07C396.954 204.972 397.291 204.924 397.63 204.93C402.257 204.93 405.77 206.03 408.17 208.23C410.57 210.43 411.77 213.763 411.77 218.23V223.75C411.647 225.477 412.163 227.189 413.22 228.56C414.22 229.66 415.79 230.21 418.02 230.21C418.359 230.204 418.696 230.251 419.02 230.35C419.301 230.438 419.542 230.622 419.7 230.87C419.901 231.199 420.03 231.567 420.08 231.95C420.17 232.546 420.21 233.148 420.2 233.75C420.209 234.356 420.169 234.961 420.08 235.56C420.027 235.945 419.897 236.315 419.7 236.65C419.546 236.906 419.304 237.098 419.02 237.19C418.696 237.289 418.359 237.336 418.02 237.33C415.79 237.33 414.2 237.88 413.22 238.98C412.163 240.351 411.647 242.063 411.77 243.79V250.79C411.77 255.29 410.57 258.62 408.17 260.79C405.77 262.96 402.26 264.07 397.63 264.07C397.292 264.078 396.955 264.035 396.63 263.94C396.349 263.841 396.11 263.651 395.95 263.4C395.753 263.062 395.624 262.688 395.57 262.3C395.48 261.704 395.44 261.102 395.45 260.5C395.44 259.894 395.48 259.289 395.57 258.69C395.623 258.308 395.753 257.941 395.95 257.61C396.112 257.368 396.352 257.188 396.63 257.1C396.953 256.997 397.291 256.95 397.63 256.96C398.384 257.017 399.141 256.906 399.847 256.634C400.552 256.363 401.189 255.938 401.71 255.39C402.63 254.35 403.09 252.683 403.09 250.39V243.39C403.077 242.3 403.211 241.214 403.49 240.16C403.738 239.226 404.115 238.33 404.61 237.5C405.089 236.713 405.675 235.996 406.35 235.37C407.03 234.74 407.774 234.184 408.57 233.71V233.71Z" fill="black"/>
</g>
<g id="left-eye">
<path id="Vector_5" d="M284.22 263.67C282.006 262.393 279.919 260.907 277.99 259.23C275.899 257.424 274.057 255.349 272.51 253.06C270.851 250.587 269.545 247.894 268.63 245.06C266.657 238.659 266.657 231.811 268.63 225.41C269.545 222.576 270.851 219.883 272.51 217.41C274.057 215.121 275.899 213.046 277.99 211.24C279.919 209.563 282.006 208.077 284.22 206.8C284.536 206.616 284.898 206.527 285.263 206.543C285.628 206.559 285.981 206.679 286.28 206.89C287.048 207.383 287.703 208.034 288.2 208.8C288.484 209.23 288.728 209.685 288.93 210.16C289.114 210.573 289.248 211.006 289.33 211.45C289.406 211.806 289.406 212.174 289.33 212.53C289.301 212.678 289.24 212.818 289.152 212.941C289.064 213.063 288.951 213.165 288.82 213.24C286.787 214.508 284.876 215.961 283.11 217.58C281.5 219.058 280.088 220.739 278.91 222.58C277.765 224.395 276.886 226.365 276.3 228.43C275.1 232.877 275.1 237.563 276.3 242.01C276.886 244.071 277.765 246.038 278.91 247.85C280.088 249.691 281.5 251.372 283.11 252.85C284.874 254.472 286.785 255.925 288.82 257.19C288.949 257.272 289.06 257.379 289.148 257.504C289.235 257.629 289.297 257.771 289.33 257.92C289.406 258.269 289.406 258.631 289.33 258.98C289.248 259.424 289.114 259.857 288.93 260.27C288.728 260.745 288.484 261.2 288.2 261.63C287.703 262.396 287.048 263.047 286.28 263.54C285.985 263.757 285.634 263.884 285.269 263.907C284.904 263.93 284.54 263.848 284.22 263.67V263.67Z" fill="black"/>
<path id="Vector_6" d="M314.56 263.67C314.246 263.854 313.885 263.943 313.522 263.927C313.158 263.911 312.807 263.791 312.51 263.58C311.737 263.09 311.078 262.438 310.58 261.67C310.279 261.245 310.024 260.789 309.82 260.31C309.632 259.899 309.497 259.465 309.42 259.02C309.339 258.671 309.339 258.309 309.42 257.96C309.502 257.66 309.691 257.401 309.95 257.23C311.985 255.965 313.896 254.512 315.66 252.89C317.27 251.412 318.682 249.731 319.86 247.89C321.019 246.064 321.909 244.08 322.5 242C323.7 237.553 323.7 232.867 322.5 228.42C321.914 226.355 321.035 224.386 319.89 222.57C318.712 220.729 317.3 219.048 315.69 217.57C313.924 215.951 312.013 214.498 309.98 213.23C309.849 213.153 309.734 213.051 309.643 212.929C309.552 212.807 309.487 212.668 309.45 212.52C309.369 212.165 309.369 211.795 309.45 211.44C309.527 210.995 309.662 210.561 309.85 210.15C310.054 209.671 310.309 209.215 310.61 208.79C311.108 208.022 311.767 207.37 312.54 206.88C312.837 206.669 313.188 206.549 313.552 206.533C313.915 206.517 314.276 206.606 314.59 206.79C316.804 208.067 318.891 209.553 320.82 211.23C322.911 213.036 324.753 215.111 326.3 217.4C327.959 219.873 329.265 222.566 330.18 225.4C332.153 231.801 332.153 238.649 330.18 245.05C329.265 247.884 327.959 250.577 326.3 253.05C324.753 255.339 322.911 257.414 320.82 259.22C318.882 260.902 316.785 262.392 314.56 263.67V263.67Z" fill="black"/>
</g>
<path id="nose" d="M343.94 331.72C342.641 331.725 341.354 331.463 340.16 330.95C339.008 330.467 337.962 329.764 337.08 328.88C336.205 328.004 335.506 326.969 335.02 325.83C334.512 324.631 334.25 323.342 334.25 322.04C334.25 320.738 334.512 319.449 335.02 318.25C335.989 315.924 337.836 314.074 340.16 313.1C341.359 312.592 342.648 312.33 343.95 312.33C345.252 312.33 346.541 312.592 347.74 313.1C350.053 314.083 351.891 315.931 352.86 318.25C353.368 319.449 353.63 320.738 353.63 322.04C353.63 323.342 353.368 324.631 352.86 325.83C351.877 328.133 350.043 329.967 347.74 330.95C346.54 331.467 345.246 331.73 343.94 331.72V331.72ZM372.67 331.72C371.371 331.725 370.084 331.463 368.89 330.95C367.738 330.467 366.692 329.764 365.81 328.88C364.935 328.004 364.236 326.969 363.75 325.83C363.242 324.631 362.98 323.342 362.98 322.04C362.98 320.738 363.242 319.449 363.75 318.25C364.719 315.924 366.566 314.074 368.89 313.1C370.089 312.592 371.378 312.33 372.68 312.33C373.982 312.33 375.271 312.592 376.47 313.1C378.783 314.083 380.621 315.931 381.59 318.25C382.098 319.449 382.36 320.738 382.36 322.04C382.36 323.342 382.098 324.631 381.59 325.83C380.607 328.133 378.773 329.967 376.47 330.95C375.27 331.467 373.976 331.729 372.67 331.72V331.72Z" fill="black"/>
</g>
</g>
</svg>
